<mxfile host="app.diagrams.net" modified="2023-12-13T09:36:19.598Z" agent="Mozilla/5.0 (Macintosh; Intel Mac OS X 10_15_7) AppleWebKit/537.36 (KHTML, like Gecko) Chrome/119.0.0.0 Safari/537.36" etag="FB3gxpWWl8-BabGhRua9" version="22.1.8" type="github">
  <diagram id="prtHgNgQTEPvFCAcTncT" name="Page-1">
    <mxGraphModel dx="954" dy="516" grid="1" gridSize="10" guides="1" tooltips="1" connect="1" arrows="1" fold="1" page="1" pageScale="1" pageWidth="827" pageHeight="1169" math="0" shadow="0">
      <root>
        <mxCell id="0" />
        <mxCell id="1" parent="0" />
        <mxCell id="rASImBhdtFkUBhAL0lu4-19" value="" style="rounded=1;whiteSpace=wrap;html=1;dashed=1;fillColor=#fff2cc;strokeColor=#d6b656;strokeWidth=4;shadow=0;glass=0;fillStyle=auto;" vertex="1" parent="1">
          <mxGeometry x="70" y="90" width="680" height="600" as="geometry" />
        </mxCell>
        <mxCell id="dNxyNK7c78bLwvsdeMH5-19" value="事件交互流程" style="swimlane;html=1;childLayout=stackLayout;resizeParent=1;resizeParentMax=0;horizontal=0;startSize=20;horizontalStack=0;" parent="1" vertex="1">
          <mxGeometry x="120" y="120" width="420" height="500" as="geometry" />
        </mxCell>
        <mxCell id="dNxyNK7c78bLwvsdeMH5-20" value="业务系统" style="swimlane;html=1;startSize=20;horizontal=0;" parent="dNxyNK7c78bLwvsdeMH5-19" vertex="1">
          <mxGeometry x="20" width="400" height="230" as="geometry" />
        </mxCell>
        <mxCell id="rASImBhdtFkUBhAL0lu4-6" value="" style="rounded=0;whiteSpace=wrap;html=1;align=left;" vertex="1" parent="dNxyNK7c78bLwvsdeMH5-20">
          <mxGeometry x="100" y="10" width="240" height="120" as="geometry" />
        </mxCell>
        <mxCell id="dNxyNK7c78bLwvsdeMH5-25" value="" style="edgeStyle=orthogonalEdgeStyle;rounded=0;orthogonalLoop=1;jettySize=auto;html=1;" parent="dNxyNK7c78bLwvsdeMH5-20" source="dNxyNK7c78bLwvsdeMH5-23" target="dNxyNK7c78bLwvsdeMH5-24" edge="1">
          <mxGeometry relative="1" as="geometry" />
        </mxCell>
        <mxCell id="dNxyNK7c78bLwvsdeMH5-23" value="" style="ellipse;whiteSpace=wrap;html=1;" parent="dNxyNK7c78bLwvsdeMH5-20" vertex="1">
          <mxGeometry x="40" y="40" width="40" height="40" as="geometry" />
        </mxCell>
        <mxCell id="rASImBhdtFkUBhAL0lu4-2" value="" style="edgeStyle=orthogonalEdgeStyle;rounded=0;orthogonalLoop=1;jettySize=auto;html=1;" edge="1" parent="dNxyNK7c78bLwvsdeMH5-20" source="dNxyNK7c78bLwvsdeMH5-24" target="dNxyNK7c78bLwvsdeMH5-30">
          <mxGeometry relative="1" as="geometry" />
        </mxCell>
        <mxCell id="dNxyNK7c78bLwvsdeMH5-24" value="处理业务逻辑" style="rounded=0;whiteSpace=wrap;html=1;fontFamily=Helvetica;fontSize=12;fontColor=#000000;align=center;" parent="dNxyNK7c78bLwvsdeMH5-20" vertex="1">
          <mxGeometry x="120" y="30" width="80" height="60" as="geometry" />
        </mxCell>
        <mxCell id="dNxyNK7c78bLwvsdeMH5-30" value="调用webframwork保存事件到事件表" style="rounded=0;whiteSpace=wrap;html=1;fontFamily=Helvetica;fontSize=12;fontColor=#000000;align=center;" parent="dNxyNK7c78bLwvsdeMH5-20" vertex="1">
          <mxGeometry x="240" y="30" width="80" height="60" as="geometry" />
        </mxCell>
        <mxCell id="rASImBhdtFkUBhAL0lu4-7" value="保证同一事务" style="text;html=1;strokeColor=none;fillColor=none;align=center;verticalAlign=middle;whiteSpace=wrap;rounded=0;" vertex="1" parent="dNxyNK7c78bLwvsdeMH5-20">
          <mxGeometry x="110" y="100" width="80" height="30" as="geometry" />
        </mxCell>
        <mxCell id="dNxyNK7c78bLwvsdeMH5-21" value="webframwork" style="swimlane;html=1;startSize=20;horizontal=0;" parent="dNxyNK7c78bLwvsdeMH5-19" vertex="1">
          <mxGeometry x="20" y="230" width="400" height="195" as="geometry" />
        </mxCell>
        <mxCell id="rASImBhdtFkUBhAL0lu4-8" value="事件框架" style="rounded=0;whiteSpace=wrap;html=1;" vertex="1" parent="dNxyNK7c78bLwvsdeMH5-21">
          <mxGeometry x="235" y="20" width="90" height="40" as="geometry" />
        </mxCell>
        <mxCell id="rASImBhdtFkUBhAL0lu4-12" value="PG/MongoDB event_log表扫描线程" style="shape=process;whiteSpace=wrap;html=1;backgroundOutline=1;" vertex="1" parent="dNxyNK7c78bLwvsdeMH5-21">
          <mxGeometry x="225" y="70" width="110" height="40" as="geometry" />
        </mxCell>
        <mxCell id="dNxyNK7c78bLwvsdeMH5-22" value="kafka" style="swimlane;html=1;startSize=20;horizontal=0;" parent="dNxyNK7c78bLwvsdeMH5-19" vertex="1">
          <mxGeometry x="20" y="425" width="400" height="75" as="geometry" />
        </mxCell>
        <mxCell id="rASImBhdtFkUBhAL0lu4-16" value="" style="shape=cylinder3;whiteSpace=wrap;html=1;boundedLbl=1;backgroundOutline=1;size=15;" vertex="1" parent="dNxyNK7c78bLwvsdeMH5-22">
          <mxGeometry x="255" y="10" width="50" height="55" as="geometry" />
        </mxCell>
        <mxCell id="rASImBhdtFkUBhAL0lu4-11" value="" style="edgeStyle=orthogonalEdgeStyle;rounded=0;orthogonalLoop=1;jettySize=auto;html=1;dashed=1;shape=link;" edge="1" parent="dNxyNK7c78bLwvsdeMH5-19" source="dNxyNK7c78bLwvsdeMH5-30" target="rASImBhdtFkUBhAL0lu4-8">
          <mxGeometry relative="1" as="geometry">
            <mxPoint x="300" y="170" as="targetPoint" />
          </mxGeometry>
        </mxCell>
        <mxCell id="rASImBhdtFkUBhAL0lu4-17" value="" style="edgeStyle=orthogonalEdgeStyle;rounded=0;orthogonalLoop=1;jettySize=auto;html=1;" edge="1" parent="dNxyNK7c78bLwvsdeMH5-19" source="rASImBhdtFkUBhAL0lu4-12" target="rASImBhdtFkUBhAL0lu4-16">
          <mxGeometry relative="1" as="geometry" />
        </mxCell>
        <mxCell id="rASImBhdtFkUBhAL0lu4-18" value="发送事件" style="edgeLabel;html=1;align=center;verticalAlign=middle;resizable=0;points=[];" vertex="1" connectable="0" parent="rASImBhdtFkUBhAL0lu4-17">
          <mxGeometry x="-0.1789" y="3" relative="1" as="geometry">
            <mxPoint as="offset" />
          </mxGeometry>
        </mxCell>
        <mxCell id="rASImBhdtFkUBhAL0lu4-13" value="" style="edgeStyle=orthogonalEdgeStyle;rounded=0;orthogonalLoop=1;jettySize=auto;html=1;entryX=1;entryY=0.5;entryDx=0;entryDy=0;" edge="1" parent="1" source="rASImBhdtFkUBhAL0lu4-3" target="rASImBhdtFkUBhAL0lu4-12">
          <mxGeometry relative="1" as="geometry" />
        </mxCell>
        <mxCell id="rASImBhdtFkUBhAL0lu4-14" value="读取事件数据" style="edgeLabel;html=1;align=center;verticalAlign=middle;resizable=0;points=[];" vertex="1" connectable="0" parent="rASImBhdtFkUBhAL0lu4-13">
          <mxGeometry x="0.1939" y="1" relative="1" as="geometry">
            <mxPoint y="1" as="offset" />
          </mxGeometry>
        </mxCell>
        <mxCell id="rASImBhdtFkUBhAL0lu4-3" value="event_log表" style="strokeWidth=2;html=1;shape=mxgraph.flowchart.database;whiteSpace=wrap;" vertex="1" parent="1">
          <mxGeometry x="570" y="340" width="110" height="60" as="geometry" />
        </mxCell>
        <mxCell id="rASImBhdtFkUBhAL0lu4-4" value="PG&lt;br&gt;MongoDB&lt;br&gt;MySQL&lt;br&gt;....." style="text;html=1;strokeColor=none;fillColor=none;align=center;verticalAlign=middle;whiteSpace=wrap;rounded=0;" vertex="1" parent="1">
          <mxGeometry x="680" y="360" width="60" height="30" as="geometry" />
        </mxCell>
        <mxCell id="dNxyNK7c78bLwvsdeMH5-33" value="" style="edgeStyle=orthogonalEdgeStyle;rounded=0;orthogonalLoop=1;jettySize=auto;html=1;endArrow=classic;endFill=1;" parent="1" source="dNxyNK7c78bLwvsdeMH5-30" target="rASImBhdtFkUBhAL0lu4-3" edge="1">
          <mxGeometry relative="1" as="geometry">
            <mxPoint x="500" y="180" as="targetPoint" />
          </mxGeometry>
        </mxCell>
        <mxCell id="rASImBhdtFkUBhAL0lu4-5" value="保存" style="edgeLabel;html=1;align=center;verticalAlign=middle;resizable=0;points=[];" vertex="1" connectable="0" parent="dNxyNK7c78bLwvsdeMH5-33">
          <mxGeometry x="-0.2187" y="2" relative="1" as="geometry">
            <mxPoint as="offset" />
          </mxGeometry>
        </mxCell>
      </root>
    </mxGraphModel>
  </diagram>
</mxfile>
